<?xml version="1.0" standalone="no"?>
<!DOCTYPE svg PUBLIC "-//W3C//DTD SVG 20010904//EN"
 "http://www.w3.org/TR/2001/REC-SVG-20010904/DTD/svg10.dtd">
<svg version="1.0" xmlns="http://www.w3.org/2000/svg"
 width="154.000000pt" height="203.000000pt" viewBox="0 0 154.000000 203.000000"
 preserveAspectRatio="xMidYMid meet">

<g transform="translate(0.000000,203.000000) scale(0.100000,-0.100000)"
fill="#000000" stroke="none">
<path d="M1079 1975 c-43 -31 -85 -78 -122 -137 -34 -55 -16 -37 42 39 32 43
73 86 89 95 l30 18 18 -51 c10 -27 25 -56 33 -62 10 -8 9 -2 -4 23 -10 19 -23
52 -29 72 l-11 37 -46 -34z"/>
<path d="M1104 1948 c-13 -21 -8 -342 5 -364 10 -15 11 0 6 76 -8 123 -8 198
0 254 7 46 3 57 -11 34z"/>
<path d="M820 1910 c0 -8 -10 -11 -29 -7 -19 4 -33 1 -41 -8 -7 -8 -15 -13
-19 -10 -4 2 -8 -17 -8 -43 -1 -26 -2 -72 -4 -103 -1 -39 4 -64 14 -80 12 -16
13 -26 6 -35 -7 -9 -5 -16 10 -24 13 -6 21 -21 21 -36 0 -14 6 -37 14 -53 8
-15 16 -62 17 -105 l2 -78 -49 -37 c-51 -38 -94 -101 -94 -137 0 -28 37 -74
58 -74 11 1 8 6 -10 16 -24 13 -28 21 -28 59 0 49 26 88 94 137 l40 29 -3 82
c-2 45 -9 94 -17 109 -24 46 -16 86 12 58 5 -5 19 -7 32 -3 21 5 21 6 5 19
-10 7 -13 14 -7 14 22 0 36 -29 30 -62 -5 -27 -4 -29 4 -11 16 38 19 117 5
136 -12 16 -13 16 -19 1 -4 -9 -9 -14 -12 -11 -3 3 1 20 9 36 11 22 12 31 4
31 -9 0 -9 2 -1 8 8 5 8 19 0 51 -13 52 -34 66 -32 22 1 -22 4 -27 13 -19 10
8 12 0 7 -38 -4 -27 -7 -55 -7 -62 0 -7 -6 -11 -14 -8 -11 4 -11 1 -3 -14 6
-12 7 -20 1 -20 -5 0 -12 6 -15 13 -2 6 -4 3 -4 -8 2 -41 -2 -55 -18 -55 -8 0
-12 5 -9 10 3 6 -2 10 -12 10 -17 1 -17 1 0 11 21 12 22 29 2 29 -19 0 -19 10
1 39 13 18 14 25 4 31 -19 12 -2 30 28 31 24 0 25 1 7 8 -14 6 -29 2 -47 -11
-16 -11 -28 -15 -28 -9 0 5 8 15 18 21 16 11 16 11 0 6 -21 -6 -25 19 -5 27 9
4 8 8 -3 16 -8 5 -11 13 -7 17 3 4 13 1 22 -6 20 -17 20 4 -1 24 -8 9 -11 16
-5 16 6 0 10 3 10 8 -3 18 2 32 11 32 6 0 10 -7 10 -15 0 -13 4 -13 27 2 26
17 27 17 20 0 -4 -11 -3 -16 3 -12 6 3 10 2 10 -3 0 -6 -7 -12 -15 -16 -9 -3
-15 0 -15 10 0 8 -4 12 -10 9 -5 -3 -8 -16 -6 -28 2 -12 -6 -33 -18 -47 l-21
-25 21 18 c12 10 24 15 26 10 3 -4 4 -3 2 3 -1 7 8 22 21 34 15 14 22 31 21
48 -3 26 -26 45 -26 22z m-67 -215 c-22 -17 -30 -11 -13 10 7 8 17 12 22 9 5
-3 1 -12 -9 -19z m115 -75 c8 0 12 -3 8 -7 -9 -9 -66 -13 -66 -5 0 10 35 30
38 21 2 -5 11 -9 20 -9z m-43 -48 c-3 -3 -11 0 -18 7 -9 10 -8 11 6 5 10 -3
15 -9 12 -12z"/>
<path d="M765 1861 c-3 -5 -1 -12 5 -16 5 -3 10 1 10 9 0 18 -6 21 -15 7z"/>
<path d="M912 1705 c0 -16 2 -22 5 -12 2 9 2 23 0 30 -3 6 -5 -1 -5 -18z"/>
<path d="M1241 1704 c0 -11 3 -14 6 -6 3 7 2 16 -1 19 -3 4 -6 -2 -5 -13z"/>
<path d="M785 1680 c3 -5 8 -10 11 -10 2 0 4 5 4 10 0 6 -5 10 -11 10 -5 0 -7
-4 -4 -10z"/>
<path d="M1242 1650 c0 -19 2 -27 5 -17 2 9 2 25 0 35 -3 9 -5 1 -5 -18z"/>
<path d="M911 1634 c0 -11 3 -14 6 -6 3 7 2 16 -1 19 -3 4 -6 -2 -5 -13z"/>
<path d="M936 1581 c22 -38 57 -65 76 -58 9 4 7 6 -4 6 -9 1 -33 20 -54 44
-34 39 -36 40 -18 8z"/>
<path d="M1230 1581 c-12 -29 -43 -47 -90 -53 -21 -3 -25 -9 -27 -38 -1 -34
-1 -34 5 -5 6 25 13 31 44 36 43 7 66 24 79 57 14 36 4 38 -11 3z"/>
<path d="M1055 1524 l-30 -15 27 4 c24 4 27 0 31 -27 3 -25 4 -23 5 12 1 23 1
42 0 41 -2 0 -16 -7 -33 -15z"/>
<path d="M852 1423 c-1 -46 2 -83 6 -83 5 0 17 7 28 16 18 15 18 15 -3 9 -21
-6 -22 -3 -26 67 l-3 73 -2 -82z"/>
<path d="M980 1409 c-41 -22 -68 -39 -60 -39 8 1 26 7 40 15 43 25 43 17 0
-32 -23 -27 -58 -74 -78 -106 -21 -32 -47 -74 -60 -94 -13 -19 -21 -38 -18
-40 3 -3 31 35 62 83 53 84 143 199 149 192 8 -7 -64 -280 -81 -309 -11 -19
-35 -42 -54 -51 -26 -13 -30 -18 -15 -18 11 0 30 6 41 14 27 20 73 122 84 190
13 81 29 136 55 189 14 26 21 46 17 46 -4 -1 -41 -19 -82 -40z m55 1 c-3 -5
-14 -10 -23 -10 -15 0 -15 2 -2 10 20 13 33 13 25 0z"/>
<path d="M1360 1414 c-82 -61 -85 -65 -43 -39 24 14 45 25 49 25 10 0 -7 -64
-27 -98 -10 -18 -19 -47 -19 -63 0 -17 -5 -39 -10 -49 -7 -13 -7 -35 -1 -67
l10 -48 -4 52 c-2 29 0 55 6 58 5 4 9 25 9 47 0 23 6 49 14 57 7 9 21 41 31
71 10 30 24 63 33 73 24 27 1 19 -48 -19z"/>
<path d="M1101 1424 c0 -11 3 -14 6 -6 3 7 2 16 -1 19 -3 4 -6 -2 -5 -13z"/>
<path d="M1081 1298 c-13 -56 -34 -136 -47 -177 -14 -41 -23 -79 -21 -85 2 -6
16 30 31 78 31 99 68 264 64 278 -2 5 -14 -37 -27 -94z"/>
<path d="M1066 1365 c-3 -9 -6 -22 -5 -28 0 -7 5 -1 10 12 5 13 8 26 5 28 -2
2 -6 -3 -10 -12z"/>
<path d="M1193 1286 c-100 -93 -120 -127 -122 -205 0 -35 3 -69 8 -75 14 -16
-178 -345 -201 -346 -4 0 4 24 16 53 13 28 30 72 39 97 9 25 23 63 32 85 9 22
12 36 7 30 -11 -12 -122 -288 -122 -304 0 -6 8 -11 18 -10 27 0 107 36 93 40
-14 5 100 119 120 119 10 0 -69 -93 -96 -112 -5 -4 2 -8 17 -8 19 0 26 4 22
13 -3 8 16 37 41 65 44 48 45 52 23 52 -15 0 -41 -18 -73 -50 -27 -27 -50 -48
-52 -46 -4 4 44 97 114 218 42 74 45 77 69 66 18 -9 34 -8 65 2 39 13 99 69
99 93 0 7 -9 -3 -20 -21 -18 -30 -85 -71 -117 -72 -6 0 -30 12 -52 27 l-42 27
6 65 c6 78 16 95 113 189 92 89 89 95 -5 8z m-138 -401 c-31 -54 -74 -133 -96
-176 -21 -44 -46 -79 -53 -79 -8 0 -23 -3 -33 -7 -11 -4 1 15 28 47 25 30 73
102 106 160 93 162 98 170 101 161 2 -5 -22 -53 -53 -106z"/>
<path d="M260 1290 c-17 -6 -4 -8 43 -6 37 2 70 5 72 8 9 8 -90 6 -115 -2z"/>
<path d="M1014 1186 c-17 -58 -28 -106 -25 -106 8 0 63 188 59 201 -2 6 -17
-37 -34 -95z"/>
<path d="M140 1267 c0 -7 15 -21 33 -30 17 -9 57 -38 87 -64 l55 -47 -40 43
c-22 23 -59 54 -83 68 -23 14 -39 29 -36 34 3 5 0 9 -5 9 -6 0 -11 -6 -11 -13z"/>
<path d="M183 1273 c9 -2 23 -2 30 0 6 3 -1 5 -18 5 -16 0 -22 -2 -12 -5z"/>
<path d="M498 1240 c41 -29 57 -61 50 -97 -2 -11 -12 -18 -26 -17 -27 1 -27 2
-2 -38 26 -44 25 -64 -5 -84 -41 -27 -93 -6 -155 64 -47 51 -49 52 -19 11 48
-66 95 -99 139 -99 20 0 41 5 48 12 9 9 12 -11 14 -92 l2 -105 6 115 c3 63 7
91 8 63 1 -29 5 -53 10 -53 4 0 5 25 4 55 -2 30 -8 55 -14 55 -5 0 -7 4 -3 10
9 14 -6 61 -17 54 -6 -4 -1 7 11 23 21 28 22 32 8 64 -14 35 -69 89 -89 89 -6
0 8 -13 30 -30z"/>
<path d="M1137 1075 c-19 -41 -22 -59 -6 -50 6 4 8 9 5 12 -3 3 2 19 10 35 9
17 14 32 12 34 -3 2 -12 -12 -21 -31z"/>
<path d="M744 1070 c0 -18 2 -18 18 -3 10 9 18 18 18 20 0 1 -8 3 -18 3 -11 0
-18 -7 -18 -20z"/>
<path d="M763 1043 c-23 -34 -50 -97 -31 -71 7 9 22 31 32 50 l20 33 7 -35 c3
-19 7 -27 8 -16 1 15 4 16 16 6 29 -24 26 -3 -4 29 l-29 31 -19 -27z"/>
<path d="M939 968 c-41 -100 -45 -112 -23 -73 22 38 65 147 60 152 -2 2 -19
-33 -37 -79z"/>
<path d="M719 1024 c-24 -30 -168 -328 -162 -337 3 -5 13 10 23 34 22 57 103
222 136 277 26 42 28 56 3 26z"/>
<path d="M992 995 c-17 -37 -14 -45 4 -12 9 16 14 31 11 33 -2 2 -9 -7 -15
-21z"/>
<path d="M783 920 c0 -25 2 -35 4 -22 2 12 2 32 0 45 -2 12 -4 2 -4 -23z"/>
<path d="M679 883 c-34 -74 -82 -224 -74 -231 2 -2 -3 -19 -12 -36 -17 -35
-16 -34 51 47 26 31 52 57 58 57 5 0 -5 -18 -24 -39 -29 -34 -43 -58 -90 -153
-15 -32 6 -16 62 45 l55 61 -45 -34 -44 -35 23 40 c12 22 40 60 61 84 22 24
37 48 34 53 -3 4 1 5 8 3 21 -8 10 -83 -14 -96 -18 -10 -18 -12 -3 -35 8 -13
12 -24 7 -24 -7 0 -21 -21 -41 -64 -2 -5 10 0 27 12 16 12 35 22 41 22 6 0 11
5 11 11 0 7 -10 5 -25 -5 -33 -22 -32 -3 1 23 15 12 23 21 18 21 -4 0 0 6 9
13 18 14 82 124 92 159 6 21 -32 -39 -76 -120 -10 -19 -20 -28 -24 -22 -9 14
5 122 17 138 6 6 6 12 1 12 -4 0 -8 19 -6 43 l2 42 -8 -43 c-6 -36 -18 -53
-77 -106 -38 -35 -71 -60 -72 -55 -5 13 36 147 59 192 25 49 40 87 33 87 -3 0
-19 -30 -35 -67z m78 -259 c-3 -4 -14 -3 -24 0 -15 6 -15 8 -3 16 16 10 39 -4
27 -16z"/>
<path d="M823 905 c0 -22 2 -30 4 -17 2 12 2 30 0 40 -3 9 -5 -1 -4 -23z"/>
<path d="M881 833 c-10 -26 -10 -27 4 -9 8 11 15 23 15 28 0 15 -7 8 -19 -19z"/>
<path d="M267 842 c-46 -2 -70 -7 -73 -16 -8 -20 135 -166 161 -166 15 1 13 4
-10 14 -37 17 -153 146 -131 146 8 0 18 -4 21 -10 3 -5 14 -10 23 -10 9 0 41
-11 71 -25 30 -14 56 -23 59 -21 4 5 -67 40 -128 64 -22 8 -19 10 23 9 26 0
50 3 54 6 10 11 2 12 -70 9z"/>
<path d="M380 842 c0 -5 11 -13 24 -16 14 -3 28 -15 31 -27 7 -22 -12 -79 -26
-79 -5 0 -9 -9 -9 -19 0 -11 -4 -23 -10 -26 -5 -3 -10 -12 -10 -18 1 -7 9 -2
20 11 l18 22 16 -47 c25 -81 35 -123 27 -123 -15 0 -41 37 -41 58 0 17 -6 22
-25 22 -15 0 -25 6 -25 15 0 8 -13 21 -30 30 -33 17 -54 20 -45 5 4 -6 10 -8
14 -6 13 9 51 -24 51 -44 0 -10 5 -22 10 -25 6 -3 10 -1 10 4 0 6 7 11 16 11
11 0 14 -5 10 -16 -4 -9 -1 -23 6 -32 7 -8 -14 -1 -47 15 -33 17 -73 33 -90
36 -16 3 -48 13 -70 23 l-40 17 35 10 c23 7 29 12 18 14 -22 5 -60 -15 -56
-29 2 -6 52 -28 111 -48 61 -21 123 -50 144 -66 35 -29 42 -51 16 -48 -7 1
-13 -8 -14 -20 -2 -41 3 -91 9 -98 4 -4 6 19 4 50 -2 44 0 53 8 40 6 -10 16
-18 22 -18 7 0 7 4 -1 13 -8 10 -7 17 1 25 9 9 9 15 0 24 -19 19 -14 30 7 19
18 -10 18 -6 -5 76 -13 48 -23 92 -22 98 1 5 -2 20 -6 33 -5 14 -3 28 4 37 21
25 8 68 -27 88 -18 10 -33 14 -33 9z m65 -322 c3 -5 2 -10 -4 -10 -5 0 -13 5
-16 10 -3 6 -2 10 4 10 5 0 13 -4 16 -10z"/>
<path d="M812 825 c0 -16 2 -22 5 -12 2 9 2 23 0 30 -3 6 -5 -1 -5 -18z"/>
<path d="M537 783 c-11 -10 -8 -45 2 -38 6 3 9 14 8 25 -1 23 -1 22 -10 13z"/>
<path d="M562 770 c0 -14 2 -19 5 -12 2 6 2 18 0 25 -3 6 -5 1 -5 -13z"/>
<path d="M802 765 c0 -16 2 -22 5 -12 2 9 2 23 0 30 -3 6 -5 -1 -5 -18z"/>
<path d="M1140 723 c-12 -15 -19 -35 -17 -45 4 -13 -2 -20 -21 -24 -107 -24
-187 -57 -178 -73 6 -9 -106 -168 -132 -188 -14 -12 -14 -13 1 -13 26 0 21
-33 -12 -74 -16 -20 -32 -53 -36 -73 -4 -21 -11 -44 -17 -50 -6 -7 -7 -13 -2
-13 4 0 -1 -7 -12 -15 -19 -14 -9 -21 12 -7 15 10 44 68 38 75 -10 10 16 74
36 92 13 11 20 31 20 53 0 27 16 56 71 134 75 103 83 111 137 123 31 6 33 5
27 -13 -17 -57 73 -142 181 -171 42 -11 128 -87 140 -123 3 -10 10 -18 15 -18
11 0 11 78 -1 105 -6 13 -7 1 -3 -35 l6 -55 -46 56 c-48 58 -72 74 -122 84
-53 10 -123 61 -146 107 l-21 42 22 18 c12 10 28 18 36 18 15 0 16 1 18 43 2
30 22 47 66 58 23 6 22 7 -7 8 -23 1 -37 -6 -53 -26z"/>
<path d="M1273 693 c33 -34 56 -71 72 -114 13 -35 24 -59 24 -53 3 48 -63 162
-113 196 -23 16 -19 8 17 -29z"/>
<path d="M527 713 c-3 -10 -10 -39 -17 -65 -14 -54 -25 -60 -34 -22 -4 15 -9
24 -12 21 -3 -3 2 -22 11 -43 l16 -39 13 30 c17 40 38 126 32 132 -2 2 -6 -4
-9 -14z"/>
<path d="M791 714 c0 -11 3 -14 6 -6 3 7 2 16 -1 19 -3 4 -6 -2 -5 -13z"/>
<path d="M551 654 c0 -11 3 -14 6 -6 3 7 2 16 -1 19 -3 4 -6 -2 -5 -13z"/>
<path d="M1053 663 c9 -2 25 -2 35 0 9 3 1 5 -18 5 -19 0 -27 -2 -17 -5z"/>
<path d="M1229 593 c36 -38 83 -99 104 -138 25 -47 36 -60 32 -40 -8 41 -86
154 -140 204 -71 66 -68 47 4 -26z"/>
<path d="M827 546 c-32 -19 -64 -39 -70 -45 -7 -7 8 -1 33 13 49 28 65 32 54
14 -5 -7 -3 -8 5 -4 7 5 10 10 7 13 -3 3 5 14 17 24 31 26 20 22 -46 -15z"/>
<path d="M810 480 c-12 -17 -20 -35 -18 -40 2 -5 13 8 26 30 27 47 22 53 -8
10z"/>
<path d="M1371 494 c0 -11 3 -14 6 -6 3 7 2 16 -1 19 -3 4 -6 -2 -5 -13z"/>
<path d="M564 488 c-4 -7 -14 -24 -22 -38 -14 -24 -13 -24 3 -5 20 24 37 55
31 55 -3 0 -8 -6 -12 -12z"/>
<path d="M657 493 c-4 -3 -7 -11 -7 -17 0 -6 5 -5 12 2 6 6 9 14 7 17 -3 3 -9
2 -12 -2z"/>
<path d="M692 454 l-37 -36 43 33 c23 18 42 34 42 36 0 9 -14 0 -48 -33z"/>
<path d="M630 440 c-6 -11 -8 -20 -6 -20 3 0 10 9 16 20 6 11 8 20 6 20 -3 0
-10 -9 -16 -20z"/>
<path d="M673 399 c-49 -48 -62 -57 -66 -42 -3 14 -6 12 -12 -10 -13 -47 3
-43 61 14 l56 54 -26 -43 c-34 -54 -49 -92 -36 -92 5 0 12 5 15 10 3 6 21 18
38 27 30 15 31 15 18 -1 -24 -29 -6 -26 27 5 30 29 41 49 25 49 -5 0 -27 -11
-50 -25 -24 -13 -43 -21 -43 -16 0 4 16 31 35 61 58 92 44 95 -42 9z"/>
<path d="M320 365 c0 -4 7 -19 15 -35 10 -20 12 -31 4 -36 -6 -3 -9 -17 -6
-30 5 -30 0 -30 -46 2 -48 33 -57 25 -23 -20 14 -19 26 -39 26 -44 0 -5 7 -15
15 -22 22 -18 18 -4 -10 37 -13 20 -23 39 -21 41 8 7 58 -32 67 -52 7 -16 8
-9 6 26 -3 26 0 51 6 57 8 8 6 20 -6 41 -20 33 -17 36 16 19 21 -10 21 -10 3
5 -19 16 -46 21 -46 11z"/>
<path d="M404 321 c23 -25 36 -27 36 -4 0 9 -3 13 -6 10 -4 -3 -16 -1 -28 5
-21 11 -21 11 -2 -11z"/>
<path d="M786 255 c-18 -28 -21 -39 -6 -30 15 9 12 -8 -6 -33 -8 -12 -11 -22
-5 -22 5 0 13 6 18 13 9 14 33 78 33 90 0 15 -18 6 -34 -18z m17 -10 c-3 -9
-8 -14 -10 -11 -3 3 -2 9 2 15 9 16 15 13 8 -4z"/>
<path d="M400 267 c0 -4 9 -25 20 -47 24 -48 24 -50 3 -50 -15 0 -16 -2 -3
-10 23 -15 43 -12 36 5 -3 8 0 15 7 15 7 0 4 5 -5 11 -10 5 -18 15 -18 22 0
13 -39 67 -40 54z"/>
<path d="M838 238 c-13 -13 -20 -20 -15 -16 5 3 16 4 23 1 8 -3 17 2 20 11 10
27 -2 29 -28 4z"/>
<path d="M200 215 c0 -2 8 -9 18 -14 14 -8 19 -6 19 5 0 7 -9 14 -19 14 -10 0
-18 -2 -18 -5z"/>
<path d="M810 185 c-13 -14 -19 -25 -14 -25 12 0 42 20 30 20 -5 0 -3 7 4 15
20 25 5 17 -20 -10z"/>
<path d="M856 190 c-17 -6 -18 -7 -3 -13 9 -3 19 -2 23 4 9 15 2 18 -20 9z"/>
<path d="M245 180 c-3 -5 1 -10 10 -10 9 0 13 5 10 10 -3 6 -8 10 -10 10 -2 0
-7 -4 -10 -10z"/>
<path d="M575 165 c-39 -32 -28 -32 15 0 19 14 30 25 24 25 -5 0 -22 -11 -39
-25z"/>
<path d="M650 175 c-11 -13 -10 -14 4 -9 9 3 16 10 16 15 0 13 -6 11 -20 -6z"/>
<path d="M686 174 c-4 -10 -1 -14 6 -12 15 5 23 28 10 28 -5 0 -13 -7 -16 -16z"/>
<path d="M198 173 c7 -3 16 -2 19 1 4 3 -2 6 -13 5 -11 0 -14 -3 -6 -6z"/>
<path d="M471 163 c4 -23 -4 -31 -26 -29 -13 2 -22 -1 -19 -6 3 -5 12 -7 19
-4 8 3 16 0 18 -7 3 -8 11 -6 26 7 16 15 18 22 10 33 -12 14 -30 18 -28 6z"/>
<path d="M835 160 c-3 -5 -2 -10 4 -10 5 0 13 5 16 10 3 6 2 10 -4 10 -5 0
-13 -4 -16 -10z"/>
<path d="M263 153 c9 -2 23 -2 30 0 6 3 -1 5 -18 5 -16 0 -22 -2 -12 -5z"/>
<path d="M330 155 c0 -2 10 -10 23 -16 20 -11 21 -11 8 4 -13 16 -31 23 -31
12z"/>
<path d="M857 146 c-16 -12 -16 -14 1 -30 26 -22 39 -20 18 3 -17 18 -17 19 1
23 10 2 13 6 8 10 -6 3 -18 1 -28 -6z"/>
<path d="M180 129 c0 -5 5 -7 10 -4 6 3 10 8 10 11 0 2 -4 4 -10 4 -5 0 -10
-5 -10 -11z"/>
<path d="M805 130 c-4 -6 -11 -8 -16 -5 -5 4 -9 1 -9 -5 0 -7 7 -9 16 -6 9 3
20 6 25 6 5 0 9 5 9 10 0 13 -17 13 -25 0z"/>
<path d="M253 118 c-23 -11 -31 -28 -13 -28 6 0 10 5 10 10 0 6 11 10 25 10
14 0 25 5 25 10 0 13 -19 12 -47 -2z"/>
<path d="M340 116 c0 -2 7 -7 16 -10 8 -3 12 -2 9 4 -6 10 -25 14 -25 6z"/>
<path d="M317 97 c-4 -14 30 -53 40 -44 3 4 1 7 -7 7 -9 0 -10 3 -2 13 8 9 6
16 -8 25 -14 9 -19 9 -23 -1z"/>
<path d="M880 90 c-12 -8 -11 -10 7 -10 12 0 25 5 28 10 8 13 -15 13 -35 0z"/>
<path d="M583 73 c-7 -2 -13 -9 -13 -15 0 -6 6 -6 15 2 10 8 40 10 97 7 65 -4
72 -4 33 3 -57 9 -114 11 -132 3z"/>
<path d="M778 73 c6 -2 18 -2 25 0 6 3 1 5 -13 5 -14 0 -19 -2 -12 -5z"/>
<path d="M438 53 c23 -2 61 -2 85 0 23 2 4 4 -43 4 -47 0 -66 -2 -42 -4z"/>
</g>
</svg>
